<svg version="1.1" id="Layer_1" xmlns:x="ns_extend;" xmlns:i="ns_ai;" xmlns:graph="ns_graphs;" xmlns="http://www.w3.org/2000/svg" xmlns:xlink="http://www.w3.org/1999/xlink" x="0px" y="0px" viewBox="0 0 41.8 46" style="enable-background:new 0 0 41.8 46;" xml:space="preserve">
 <metadata>
  <sfw xmlns="ns_sfw;">
   <slices>
   </slices>
   <sliceSourceBounds bottomLeftOrigin="true" height="46" width="41.8" x="0" y="0.3">
   </sliceSourceBounds>
  </sfw>
 </metadata>
 <g>
  <path d="M34.1,13.3L33.3,14l0.9,2.9l-2.6-1.4l-0.9,0.7l2.9,1.6l-3.1,2.5l-0.8-1.1l1.1-0.9l-0.8-1l-1.1,0.9L28,17l1.1-0.9L28.3,15
		l-5.6,4.7l5.4,4.3l1-1.2c0.7,0,1.2,0.6,1.5,1.2l-1,1.2l0.6,0.5c1.3-1.2,3.1-2,4.9-2c3.8,0,6.7,3.1,6.7,6.9c0,1.2-0.3,2.6-1,3.7
		l1,0.8c0,0.7-0.7,1.5-1.4,1.7l-1-0.8c-1.3,1.3-3.1,2-4.9,2c-3.8,0-6.7-3-6.7-6.8c0-1.2,0.4-2.5,0.9-3.6L28,27.1l-1,1.3
		c-0.7-0.1-1.3-0.6-1.5-1.3l1-1.1L22,22.2v6h1.5c0.2,0.3,0.3,0.6,0.3,0.9s-0.1,0.7-0.3,1H22v0.7c3.3,0.6,6.1,3.4,6.1,6.8
		c0,3.5-2.7,6.3-6.1,6.9v1.2c-0.3,0.2-0.7,0.3-1.1,0.3s-0.9-0.1-1.2-0.3v-1.2c-3.4-0.5-6-3.4-6-6.9c0-3.4,2.6-6.2,6-6.7v-0.8h-1.6
		c-0.2-0.3-0.3-0.6-0.3-1s0.1-0.7,0.3-1h1.6v-6l-4.6,3.8l1,1.1c-0.2,0.7-0.8,1.2-1.5,1.3l-1-1.3L13,27.6c0.6,1.1,1,2.3,1,3.6
		C14,35,11,38,7.3,38c-1.8,0-3.6-0.7-4.9-2l-1,0.8c-0.6-0.2-1.3-1-1.4-1.7l1-0.8c-0.6-1.1-1-2.4-1-3.7c0-3.8,2.9-6.9,6.7-6.9
		c1.8,0,3.6,0.8,4.9,2l0.6-0.4l-1-1.2c0.2-0.6,0.8-1.1,1.5-1.2l1,1.2l5.4-4.3l-5.6-4.7l-0.8,1.1l1.1,0.9L13,18.2l-1.1-0.9l-0.8,1
		L12,19l-0.8,1.1l-3-2.5L11,16l-0.8-0.7l-2.6,1.4L8.4,14l-0.8-0.7l-1,3.1l-3.1-2.5l0.8-1l1.1,0.9l0.9-1l-1.1-1l0.8-1l1.1,0.8l0.8-1
		L5.5,8.8C5.7,8,6.2,7.4,7,6.9l12.7,10.4v-6.9h-1.3v1.3h-1.3v-1.3h-1.3v1.3h-1.3V7.8l3,1.3V8l-2.8-1.2l2.8-1.1v-1l-3,1.2v-4h1.3v1.4
		h1.3V1.9h1.3v1.4h1.3V0.2C20.1,0.1,20.5,0,20.9,0s0.8,0.1,1.1,0.2v17.1L34.7,6.9c0.7,0.5,1.2,1.1,1.5,1.9l-2.4,1.9l0.8,1l1.1-0.8
		l0.8,1l-1.1,1l0.8,1l1.1-0.9l0.8,1L35,16.5C35,16.5,34.1,13.3,34.1,13.3z M8.2,32.1c0,1.1,0.8,1.8,1.8,1.9l-1.6,1.2
		c-1.1-0.4-2.1-1.7-2.1-2.9c0-0.4,0.1-0.6,0.2-0.9H6.2c-1.5,0-2.7-1.4-3-2.8l1.7-1.3v0.5c0,0.9,0.9,1.7,1.8,1.7c1,0,1.9-0.8,1.9-1.8
		c0-1.2-0.9-2-2.1-2c-2.2,0-4.4,2.2-4.4,5c0,0.8,0.2,1.6,0.5,2.3l1-0.8c0.7,0.3,1.2,1,1.4,1.8l-1,0.8C5,35.6,6.2,36,7.4,36
		c2.6,0,4.6-2.1,4.6-3.9c0-1.1-0.7-2-1.8-2C9,30.3,8.2,31.1,8.2,32.1z M21.8,36.1c0,1,0.8,1.8,1.8,1.8c0.7,0,1-0.3,1.5-0.7v2.1
		c-0.5,0.3-1,0.4-1.6,0.4c-1.1,0-2-0.3-2.6-1.3c-0.6,1-1.6,1.3-2.7,1.3c-0.5,0-1.1-0.1-1.6-0.4v-2.1c0.5,0.5,0.8,0.7,1.5,0.7
		c1,0,1.8-0.8,1.8-1.8s-0.6-1.8-1.7-1.8c-1.9,0-2.7,1.8-2.7,3.5c0,2.4,1.8,4.5,4.1,4.9v-1.2c0.4-0.2,0.8-0.2,1.1-0.2
		c0.4,0,0.8,0,1.2,0.2v1.2c2.2-0.3,4.1-2.6,4.1-4.9c0-1.7-0.7-3.5-2.7-3.5C22.5,34.2,21.8,35.1,21.8,36.1z M33.2,27.8
		c0,0.9,1,1.8,1.9,1.8s1.8-0.8,1.8-1.7v-0.5l1.6,1.3c-0.3,1.6-1.7,2.9-3.3,2.8c0.1,0.3,0.1,0.6,0.1,0.9c0,1.2-1,2.5-2.1,2.9L31.7,34
		c1-0.1,1.8-0.8,1.8-1.9c0-1.1-0.9-1.8-1.9-1.8c-1.1,0-1.8,0.9-1.8,2c0,1.3,1.6,3.9,4.7,3.9c1.2,0,2.4-0.4,3.3-1.2l-1-0.8
		c0.2-0.8,0.7-1.5,1.4-1.8l1,0.8c0.4-0.7,0.6-1.5,0.6-2.3c0-2.2-1.7-5-4.4-5C34.2,25.9,33.2,26.6,33.2,27.8z">
  </path>
 </g>
</svg>